<svg xmlns="http://www.w3.org/2000/svg" width="39" height="32" viewBox="0 0 39 32"><g><g clip-path="url(#clip-77)"><path fill="#fff" d="M36.331 31.948H2.667c-1.487 0-2.693-1.19-2.693-2.658V8.023c0-1.467 1.206-2.658 2.693-2.658h8.164s-.084-.159-.084-1.994S12.254.048 14.114.048h10.772c1.86 0 3.366 1.488 3.366 3.323s.085 1.994.085 1.994h7.994c1.487 0 2.693 1.19 2.693 2.658V29.29c0 1.468-1.206 2.658-2.693 2.658zM19.56 26.596c4.462 0 8.08-3.57 8.08-7.975 0-4.405-3.618-7.975-8.08-7.975s-8.08 3.57-8.08 7.975c0 4.405 3.618 7.975 8.08 7.975z"/></g></g></svg>